<?xml version="1.0" encoding="iso-8859-1"?>
<!-- Generator: Adobe Illustrator 19.0.0, SVG Export Plug-In . SVG Version: 6.00 Build 0)  -->
<svg version="1.1" id="Capa_1" xmlns="http://www.w3.org/2000/svg" xmlns:xlink="http://www.w3.org/1999/xlink" x="0px" y="0px"
	 viewBox="0 0 512.007 512.007" style="enable-background:new 0 0 512.007 512.007;" xml:space="preserve">
<g>
	<g>
		<path d="M353.678,210.472c-0.021-12.765-10.414-23.135-23.174-23.135c-0.013,0-0.026,0-0.04,0l-40.932,0.07
			c-6.19,0.011-12.006,2.431-16.375,6.815c-4.37,4.385-6.77,10.209-6.759,16.398l0.005,3.239
			c-7.278,4.175-14.077,4.187-21.367,0.037l-0.006-3.239c-0.021-12.765-10.414-23.135-23.174-23.135c-0.013,0-0.026,0-0.04,0
			l-40.933,0.07c-12.778,0.023-23.156,10.438-23.134,23.215l0.028,16.65c0.011,6.19,2.432,12.006,6.816,16.376
			c4.375,4.359,10.182,6.759,16.355,6.759c0.014,0,0.029,0,0.043,0l40.932-0.07c11.803-0.018,21.549-8.902,22.956-20.325
			c3.591,1.2,7.204,1.807,10.816,1.807c3.65,0,7.298-0.619,10.923-1.844c1.445,11.404,11.201,20.247,22.983,20.247
			c0.013,0,0.026,0,0.04,0l40.932-0.07c6.19-0.011,12.006-2.431,16.375-6.815c4.369-4.385,6.77-10.209,6.759-16.399L353.678,210.472
			z M221.901,235.524l-40.933,0.07c-0.005,0-0.01,0-0.015,0c-2.177,0-4.226-0.847-5.769-2.384c-1.546-1.541-2.4-3.593-2.404-5.776
			l-0.028-16.65c-0.008-4.508,3.653-8.182,8.16-8.189l40.932-0.07c0.005,0,0.009,0,0.014,0c4.5,0,8.166,3.658,8.174,8.16
			l0.029,16.651C230.069,231.844,226.408,235.517,221.901,235.524z M336.324,232.933c-1.541,1.547-3.593,2.4-5.776,2.404
			l-40.932,0.07c-0.005,0-0.009,0-0.014,0c-4.501,0-8.167-3.658-8.175-8.16l-0.028-16.651c-0.004-2.183,0.843-4.237,2.384-5.784
			c1.542-1.547,3.592-2.4,5.776-2.404l40.932-0.07c0.005,0,0.009,0,0.014,0c4.5,0,8.167,3.658,8.174,8.16l0.029,16.651
			C338.712,229.333,337.865,231.386,336.324,232.933z"/>
	</g>
</g>
<g>
	<g>
		<path d="M317.551,217.86c-0.007-4.138-3.363-7.487-7.5-7.487c-0.004,0-0.009,0-0.013,0c-4.142,0.007-7.494,3.371-7.487,7.513
			l0.003,2c0.008,4.137,3.364,7.487,7.5,7.487c0.004,0,0.009,0,0.013,0c4.142-0.007,7.494-3.371,7.487-7.513L317.551,217.86z"/>
	</g>
</g>
<g>
	<g>
		<path d="M208.904,218.046c-0.007-4.137-3.363-7.487-7.499-7.487c-0.004,0-0.009,0-0.013,0c-4.142,0.007-7.494,3.371-7.487,7.513
			l0.004,2c0.007,4.138,3.363,7.487,7.499,7.487c0.004,0,0.009,0,0.013,0c4.142-0.007,7.494-3.371,7.487-7.513L208.904,218.046z"/>
	</g>
</g>
<g>
	<g>
		<path d="M287.738,260.759c-3.41-2.353-8.08-1.496-10.433,1.914c-4.878,7.07-12.908,11.3-21.481,11.315c-0.015,0-0.029,0-0.044,0
			c-8.556,0-16.583-4.2-21.476-11.241c-2.363-3.4-7.036-4.243-10.439-1.878c-3.401,2.363-4.242,7.037-1.878,10.438
			c7.697,11.075,20.326,17.681,33.793,17.681c0.023,0,0.047,0,0.07,0c13.493-0.023,26.129-6.676,33.802-17.797
			C292.004,267.782,291.147,263.111,287.738,260.759z"/>
	</g>
</g>
<g>
	<g>
		<path d="M422.014,405.956c-0.007-6.613-2.591-12.827-7.275-17.497c-4.675-4.659-10.883-7.225-17.489-7.225
			c-0.009,0-0.02,0-0.029,0l-94.25,0.162c1.176-3.474,1.962-7.078,2.342-10.756l3.598-0.007c0.024,0,0.047,0,0.072,0
			c8.393,0,16.586,1.506,24.352,4.475c0.881,0.338,1.787,0.497,2.677,0.497c3.018,0,5.864-1.836,7.007-4.823
			c1.48-3.869-0.458-8.205-4.327-9.684c-9.483-3.627-19.478-5.465-29.716-5.465c-0.029,0-0.059,0-0.087,0l-3.319,0.006l-0.028-15.69
			c23.483-10.746,42.834-28.803,55.228-51.524l25.238-0.042c9.566-0.019,18.553-3.761,25.305-10.537
			c6.751-6.775,10.459-15.774,10.441-25.338c-0.022-11.408-5.496-22.042-14.517-28.712l-0.179-103.863
			c9.12-12.216,14.423-27.287,14.396-43.189l-0.02-8.615c-0.055-32.833-23.414-61.421-55.54-67.976
			c-3.823-0.78-7.601,1.498-8.697,5.239c-5.987,20.43-25.054,34.728-46.366,34.77l-131.028,0.222
			c-5.241,0.008-10.164,2.059-13.862,5.773c-2.191,2.202-3.797,4.831-4.74,7.697l-5.97,0.01c-6.462,0.011-12.84,1.044-18.956,3.07
			c-3.932,1.303-6.063,5.546-4.761,9.478c1.303,3.932,5.544,6.066,9.479,4.761c4.6-1.523,9.399-2.301,14.264-2.308l12.48-0.021
			c4.138-0.007,7.488-3.362,7.488-7.5v-1.332c-0.002-1.234,0.477-2.396,1.348-3.271c0.869-0.873,2.024-1.354,3.255-1.356
			l131.032-0.22c25.448-0.05,48.452-15.62,58.261-38.649c21.922,7.285,37.275,28.067,37.314,51.646l0.02,8.615
			c0.043,25.155-16.761,47.691-40.873,54.807c-5.185,1.537-10.595,2.321-16.081,2.331l-114.829,0.2c-0.033,0-0.064,0-0.097,0
			c-0.899,0-1.794-0.026-2.686-0.065c-0.255-0.011-0.51-0.028-0.765-0.043c-0.634-0.036-1.266-0.083-1.897-0.139
			c-0.303-0.027-0.607-0.053-0.909-0.084c-0.644-0.067-1.286-0.149-1.925-0.236c-0.472-0.065-0.942-0.137-1.412-0.213
			c-0.531-0.086-1.06-0.174-1.587-0.274c-0.465-0.089-0.926-0.186-1.387-0.286c-0.338-0.072-0.675-0.148-1.011-0.227
			c-0.507-0.119-1.014-0.239-1.517-0.371c-0.208-0.055-0.415-0.115-0.623-0.172c-1.108-0.303-2.205-0.636-3.289-1.001
			c-0.134-0.045-0.269-0.087-0.402-0.133c-0.54-0.186-1.076-0.384-1.609-0.586c-0.24-0.091-0.48-0.183-0.719-0.277
			c-0.507-0.199-1.013-0.402-1.514-0.615c-0.284-0.121-0.565-0.25-0.848-0.376c-0.7-0.311-1.392-0.634-2.078-0.971
			c-0.464-0.229-0.928-0.457-1.386-0.698c-0.282-0.148-0.561-0.301-0.84-0.453c-0.6-0.328-1.196-0.664-1.785-1.013
			c-0.126-0.074-0.252-0.146-0.377-0.221c-4.1-2.473-7.928-5.461-11.4-8.936c-0.076-0.076-0.161-0.139-0.24-0.211
			c-5.174-5.236-9.426-11.482-12.424-18.537c-1.62-3.813-6.023-5.592-9.836-3.969c-3.812,1.62-5.589,6.023-3.969,9.836
			c3.112,7.323,7.307,13.946,12.337,19.736c-0.3,0.628-0.591,1.262-0.916,1.876c-7.203,13.619-20.329,23.625-35.545,26.731
			c0,0-0.002,0-0.003,0c-0.01,0.002-0.021,0.003-0.032,0.006c-3.367,0.683-6.844,1.035-10.332,1.044l-19.927,0.034
			c-0.034-0.001-0.066-0.005-0.1-0.005c-0.004,0-0.01,0-0.014,0c-0.035,0-0.069,0.005-0.104,0.005l-1.386,0.003l-0.067-39.055
			c-0.025-10.483,3.442-20.336,10.026-28.492c2.602-3.223,2.098-7.945-1.125-10.547c-3.223-2.601-7.945-2.099-10.547,1.125
			c-8.645,10.708-13.387,24.186-13.354,37.944l0.08,46.55c0.007,4.138,3.363,7.487,7.5,7.487c0.004,0,0.009,0,0.013,0l1.491-0.003
			l0.1,56.036c-9.005,6.717-14.435,17.37-14.413,28.772c0.038,19.72,16.088,35.735,35.795,35.735c0.021,0,0.046,0,0.068,0
			l25.235-0.043c12.466,22.68,31.886,40.677,55.421,51.353l0.026,15.674l-3.329,0.006c-45.697,0.088-82.803,37.328-82.715,83.013
			l0.11,65.69c0.003,1.989,0.797,3.895,2.206,5.3c1.406,1.401,3.31,2.188,5.294,2.188c0.004,0,0.009,0,0.013,0l111.753-0.192
			c0.539,0.122,1.093,0.192,1.655,0.192c0.004,0,0.009,0,0.013,0l173.33-0.3c4.142-0.007,7.494-3.371,7.487-7.513L422.014,405.956z
			 M392.083,134.85l0.142,82.476c-0.53-0.094-1.062-0.174-1.597-0.243c-0.207-0.027-0.415-0.043-0.623-0.067
			c-0.415-0.046-0.83-0.088-1.247-0.12c-0.335-0.026-0.67-0.048-1.006-0.065c-0.514-0.026-1.027-0.042-1.541-0.049
			c-0.084-0.001-0.168-0.008-0.252-0.008c-0.022,0-0.046,0-0.069,0l-10.549,0.018l-0.119-72.656
			C381.311,141.794,386.963,138.645,392.083,134.85z M368.037,272.42c0.289-0.786,0.573-1.574,0.846-2.366
			c0.178-0.519,0.351-1.039,0.522-1.56c0.247-0.751,0.485-1.504,0.717-2.26c0.164-0.535,0.328-1.07,0.484-1.607
			c0.228-0.784,0.443-1.572,0.655-2.36c0.132-0.493,0.271-0.986,0.397-1.48c0.295-1.158,0.572-2.321,0.832-3.487
			c0.023-0.104,0.051-0.207,0.074-0.311c0.003-0.011,0.005-0.023,0.007-0.034s0.005-0.021,0.008-0.032
			c0.048-0.217,0.088-0.436,0.134-0.654c0.17-0.787,0.336-1.575,0.491-2.374c0.058-0.273,0.108-0.556,0.156-0.84
			c0.054-0.273,0.102-0.55,0.149-0.822l0.012-0.067c0.101-0.525,0.192-1.059,0.272-1.594c0.082-0.506,0.165-1.021,0.237-1.536
			c0.083-0.525,0.157-1.05,0.23-1.575c0.077-0.548,0.143-1.095,0.2-1.571c0.038-0.292,0.061-0.587,0.096-0.88
			c0.063-0.55,0.125-1.1,0.181-1.65c0.024-0.248,0.059-0.495,0.081-0.742c0.052-0.503,0.096-1.009,0.144-1.589l0.038-0.482
			c0.032-0.398,0.063-0.797,0.086-1.199c0.041-0.533,0.073-1.066,0.095-1.601c0.034-0.473,0.057-0.947,0.066-1.344l0.061-1.632
			c0.003-0.096,0.002-0.193,0.005-0.289c0.011-0.384,0.013-0.768,0.02-1.153c0.009-0.513,0.025-1.022,0.027-1.538l10.557-0.018
			c0.116-0.001,0.232,0.008,0.348,0.01c3.449,0.051,6.833,0.949,9.824,2.631c6.564,3.661,10.649,10.605,10.664,18.124
			c0.011,5.556-2.143,10.785-6.066,14.722c-3.924,3.938-9.147,6.113-14.706,6.124l-18.299,0.03
			C367.806,273.085,367.916,272.751,368.037,272.42z M131.684,168.235c1.451-0.004,2.899-0.071,4.344-0.167l0.082,49.128
			l-10.551,0.018c-0.686,0.001-1.37,0.029-2.053,0.07c-0.179,0.011-0.357,0.024-0.535,0.037c-0.59,0.044-1.177,0.101-1.763,0.174
			c-0.1,0.012-0.201,0.021-0.301,0.034c-0.563,0.075-1.124,0.16-1.682,0.262l-0.088-49.534L131.684,168.235z M125.659,273.825
			c-0.013,0-0.026,0-0.039,0c-11.449,0-20.774-9.307-20.796-20.765c-0.014-7.518,4.048-14.48,10.615-18.18
			c3.069-1.737,6.579-2.659,10.147-2.666l10.551-0.018c0.007,0.771,0.024,1.54,0.045,2.305c0.036,1.278,0.093,2.553,0.169,3.826
			c0.022,0.365,0.051,0.73,0.077,1.096c0.065,0.951,0.14,1.901,0.227,2.848c0.011,0.12,0.017,0.24,0.029,0.36
			c0.03,0.363,0.071,0.705,0.109,1.057c0.044,0.427,0.088,0.853,0.137,1.279c0.042,0.389,0.084,0.778,0.138,1.168v0.001
			c0.004,0.03,0.006,0.06,0.011,0.09c0.004,0.034,0.01,0.07,0.014,0.104c0.051,0.423,0.108,0.855,0.168,1.294
			c0.01,0.071,0.02,0.142,0.03,0.214c0.022,0.161,0.043,0.318,0.066,0.482c0.002,0.013,0.004,0.027,0.006,0.04
			c0.099,0.688,0.21,1.403,0.331,2.149c0.005,0.034,0.009,0.063,0.015,0.097c0.002,0.015,0.005,0.03,0.008,0.045
			c0.003,0.017,0.005,0.033,0.008,0.05c0.001,0.005,0.002,0.01,0.003,0.015c0.002,0.015,0.005,0.03,0.008,0.044
			c0.041,0.248,0.086,0.495,0.129,0.743c0.067,0.405,0.14,0.815,0.214,1.226c0.036,0.201,0.067,0.396,0.105,0.599
			c0.039,0.212,0.086,0.433,0.127,0.648c0.031,0.16,0.064,0.32,0.095,0.48c0.083,0.422,0.161,0.836,0.252,1.268
			c0.11,0.538,0.23,1.076,0.348,1.6c0.289,1.3,0.606,2.594,0.94,3.885c0.107,0.412,0.224,0.82,0.335,1.231
			c0.239,0.882,0.483,1.763,0.742,2.639c0.14,0.474,0.287,0.947,0.433,1.42c0.254,0.821,0.516,1.639,0.788,2.455
			c0.158,0.475,0.318,0.949,0.482,1.423c0.291,0.838,0.595,1.671,0.904,2.503c0.113,0.304,0.215,0.612,0.331,0.915L125.659,273.825z
			 M162.14,277.916c-3.806-7.601-6.664-15.626-8.499-23.866c-0.001-0.004-0.002-0.008-0.003-0.012
			c-0.163-0.729-0.312-1.462-0.459-2.196c-0.07-0.356-0.142-0.715-0.208-1.064c-0.063-0.333-0.121-0.669-0.181-1.003
			c-0.074-0.417-0.153-0.841-0.22-1.244c-0.001-0.005-0.002-0.01-0.003-0.015c-0.01-0.059-0.02-0.119-0.032-0.178
			c-0.125-0.759-0.239-1.52-0.347-2.283c-0.035-0.252-0.071-0.505-0.106-0.766c-0.097-0.72-0.187-1.442-0.269-2.166
			c-0.003-0.024-0.006-0.048-0.008-0.073c-0.002-0.024-0.009-0.084-0.012-0.108c-0.029-0.252-0.052-0.507-0.079-0.76
			c-0.043-0.413-0.082-0.828-0.12-1.242c-0.079-0.845-0.144-1.689-0.202-2.531c-0.022-0.319-0.048-0.638-0.067-0.957
			c-0.063-1.053-0.114-2.102-0.143-3.138c0-0.013-0.001-0.027-0.002-0.04c-0.028-0.967-0.047-1.932-0.047-2.909l-0.01-6.691v-0.001
			v-0.001l-0.1-59.315c0.175-0.053,0.345-0.118,0.519-0.172c0.451-0.142,0.897-0.295,1.344-0.447
			c0.631-0.213,1.26-0.432,1.883-0.664c0.461-0.172,0.918-0.35,1.374-0.532c0.601-0.239,1.197-0.486,1.79-0.742
			c0.457-0.197,0.912-0.397,1.364-0.605c0.584-0.268,1.162-0.548,1.738-0.833c0.443-0.219,0.887-0.436,1.325-0.665
			c0.581-0.303,1.153-0.622,1.724-0.942c0.416-0.233,0.835-0.46,1.246-0.701c0.618-0.363,1.223-0.746,1.828-1.128
			c0.348-0.22,0.703-0.43,1.047-0.656c0.923-0.607,1.831-1.234,2.723-1.885c0.283-0.206,0.554-0.427,0.833-0.638
			c0.62-0.467,1.239-0.936,1.842-1.424c0.364-0.294,0.715-0.602,1.073-0.903c0.505-0.426,1.009-0.851,1.501-1.291
			c0.37-0.331,0.73-0.673,1.093-1.012c0.463-0.433,0.923-0.867,1.374-1.313c0.359-0.354,0.71-0.716,1.061-1.078
			c0.439-0.453,0.872-0.912,1.298-1.377c0.339-0.37,0.673-0.743,1.003-1.12c0.422-0.482,0.834-0.971,1.242-1.465
			c0.312-0.378,0.625-0.756,0.929-1.141c0.414-0.524,0.814-1.058,1.213-1.594c0.276-0.371,0.556-0.738,0.824-1.115
			c0.431-0.605,0.843-1.224,1.254-1.844c0.214-0.323,0.437-0.64,0.646-0.967c0.607-0.952,1.195-1.918,1.754-2.902
			c1.536,1.156,3.116,2.249,4.737,3.282c0.133,0.086,0.267,0.171,0.401,0.255c0.599,0.377,1.205,0.744,1.815,1.103
			c0.295,0.175,0.59,0.35,0.888,0.52c0.419,0.239,0.842,0.47,1.265,0.7c0.461,0.252,0.922,0.506,1.388,0.748
			c0.173,0.089,0.348,0.174,0.521,0.262c4.639,2.365,9.514,4.226,14.559,5.561c0.041,0.011,0.083,0.022,0.124,0.033
			c0.79,0.207,1.584,0.401,2.382,0.582c0.138,0.032,0.277,0.063,0.416,0.094c0.725,0.16,1.452,0.311,2.183,0.45
			c0.233,0.044,0.467,0.086,0.7,0.128c0.657,0.118,1.315,0.231,1.976,0.332c0.333,0.051,0.667,0.095,1.001,0.142
			c0.579,0.08,1.157,0.16,1.739,0.227c0.455,0.052,0.913,0.094,1.37,0.138c0.478,0.046,0.955,0.096,1.434,0.133
			c0.639,0.05,1.282,0.083,1.925,0.116c0.312,0.016,0.622,0.04,0.934,0.052c0.977,0.038,1.958,0.06,2.942,0.06
			c0.042,0,0.088,0,0.13,0l114.831-0.197c0.041,0,0.08-0.006,0.121-0.006c0.843-0.003,1.685-0.019,2.525-0.051
			c0.261-0.01,0.521-0.03,0.782-0.043c0.619-0.03,1.239-0.06,1.857-0.106c0.306-0.023,0.611-0.057,0.917-0.083
			c0.572-0.05,1.143-0.098,1.713-0.162c0.317-0.035,0.633-0.081,0.949-0.12c0.556-0.069,1.112-0.138,1.666-0.22
			c0.057-0.008,0.115-0.014,0.172-0.023l0.135,82.882c0,1.024-0.011,2.044-0.042,3.044c-0.181,6.649-0.983,13.255-2.394,19.679
			c-0.226,1.031-0.468,2.059-0.725,3.082c-1.804,7.167-4.384,14.153-7.688,20.81c-11.371,22.931-30.658,40.86-54.314,50.488
			c-12.462,5.084-25.676,7.677-39.272,7.704c-1.7,0-3.394-0.039-5.081-0.118c-1.623-0.076-3.239-0.19-4.849-0.338
			c-0.163-0.015-0.325-0.031-0.488-0.047c-9.932-0.962-19.6-3.309-28.872-7.053C192.936,318.681,173.583,300.811,162.14,277.916z
			 M135.422,496.992l-0.098-58.193c-0.071-37.415,30.318-67.913,67.744-67.985l3.613-0.007c1.82,16.655,12.066,31.441,27.009,38.984
			l0.151,87.032L135.422,496.992z M247.262,384.175c-0.089,0.046-0.177,0.093-0.266,0.14c-0.357,0.188-0.71,0.386-1.057,0.591
			c-0.15,0.089-0.299,0.179-0.447,0.271c-0.282,0.174-0.559,0.355-0.834,0.54c-0.128,0.086-0.258,0.169-0.384,0.257
			c-0.354,0.249-0.701,0.509-1.041,0.775c-0.158,0.123-0.311,0.251-0.465,0.378c-0.212,0.174-0.42,0.351-0.626,0.532
			c-0.159,0.139-0.318,0.278-0.474,0.421c-0.3,0.277-0.595,0.561-0.882,0.853c-0.162,0.165-0.316,0.335-0.474,0.505
			c-0.156,0.168-0.311,0.338-0.463,0.51c-0.166,0.189-0.331,0.379-0.491,0.573c-0.135,0.163-0.264,0.33-0.395,0.496
			c-0.277,0.353-0.545,0.713-0.803,1.081c-0.105,0.15-0.212,0.299-0.314,0.451c-0.156,0.233-0.307,0.47-0.456,0.708
			c-0.09,0.144-0.176,0.29-0.262,0.436c-0.114,0.192-0.236,0.378-0.345,0.573c-9.423-6.319-15.382-17.08-15.402-28.713l-0.003-2.202
			c0-0.024,0.004-0.047,0.003-0.072c0-0.024-0.003-0.047-0.004-0.071l-0.028-17.432c0.063,0.019,0.127,0.035,0.189,0.053
			c1.217,0.363,2.44,0.704,3.668,1.028c0.29,0.076,0.58,0.149,0.87,0.224c1.115,0.285,2.234,0.556,3.357,0.809
			c0.166,0.037,0.331,0.078,0.497,0.115c1.24,0.273,2.486,0.522,3.735,0.755c0.319,0.06,0.638,0.116,0.957,0.173
			c1.155,0.206,2.313,0.398,3.475,0.57c0.132,0.02,0.263,0.043,0.395,0.062c1.237,0.178,2.479,0.331,3.723,0.47
			c0.37,0.042,0.74,0.081,1.11,0.119c1.199,0.123,2.401,0.234,3.606,0.321c0.206,0.015,0.413,0.026,0.619,0.04
			c1.123,0.075,2.249,0.132,3.377,0.176c0.374,0.014,0.748,0.029,1.122,0.04c1.216,0.036,2.434,0.061,3.655,0.061
			c0.083,0,0.166,0,0.25,0c1.32-0.003,2.636-0.034,3.949-0.079c0.309-0.011,0.618-0.022,0.927-0.035
			c1.307-0.055,2.612-0.124,3.912-0.22c0.072-0.005,0.143-0.013,0.215-0.018c1.243-0.095,2.482-0.213,3.718-0.346
			c0.296-0.032,0.591-0.063,0.886-0.097c1.288-0.148,2.573-0.312,3.853-0.502c0.132-0.019,0.262-0.043,0.394-0.063
			c1.177-0.178,2.349-0.377,3.518-0.59c0.284-0.052,0.568-0.103,0.852-0.156c1.264-0.24,2.525-0.497,3.779-0.778
			c0.178-0.04,0.355-0.084,0.533-0.125c1.123-0.257,2.242-0.532,3.358-0.822c0.269-0.07,0.538-0.138,0.806-0.21
			c1.24-0.332,2.475-0.681,3.704-1.053c0.063-0.019,0.126-0.035,0.189-0.054l0.031,19.84c0,5.601-1.333,11.041-3.881,15.938
			l-28.306,0.052c-0.507,0.001-1.015,0.024-1.52,0.056c-0.139,0.009-0.277,0.02-0.415,0.031c-0.42,0.034-0.837,0.078-1.252,0.134
			c-0.091,0.012-0.182,0.021-0.272,0.034c-0.488,0.071-0.971,0.157-1.449,0.257c-0.127,0.026-0.253,0.056-0.379,0.084
			c-0.378,0.084-0.753,0.177-1.124,0.279c-0.125,0.034-0.251,0.066-0.375,0.102c-0.46,0.134-0.915,0.279-1.364,0.439
			c-0.104,0.037-0.207,0.079-0.311,0.117c-0.357,0.132-0.71,0.272-1.06,0.421c-0.142,0.06-0.283,0.12-0.423,0.183
			C248.047,383.79,247.651,383.976,247.262,384.175z M386.171,496.754c-0.534-0.12-1.086-0.19-1.656-0.19c-0.004,0-0.009,0-0.013,0
			l-135.661,0.233l-0.156-90.533c0-0.279,0.014-0.56,0.029-0.785c0.374-5.038,4.642-8.993,9.714-9.005l138.814-0.239
			c0.004,0,0.008,0,0.011,0c2.604,0,5.053,1.012,6.896,2.849c1.845,1.839,2.862,4.285,2.865,6.894l0.157,90.74L386.171,496.754z"/>
	</g>
</g>
<g>
	<g>
		<path d="M368.988,440.757l-13.944-11.502c-3.195-2.635-7.923-2.182-10.558,1.014c-2.636,3.195-2.182,7.922,1.013,10.559
			l6.954,5.735l-6.934,5.76c-3.186,2.646-3.624,7.375-0.978,10.561c1.483,1.786,3.62,2.708,5.773,2.708
			c1.689,0,3.388-0.567,4.788-1.73l13.904-11.549c1.719-1.428,2.712-3.548,2.708-5.782
			C371.712,444.296,370.712,442.18,368.988,440.757z"/>
	</g>
</g>
<g>
	<g>
		<path d="M310.342,452.383l-6.954-5.735l6.934-5.76c3.186-2.647,3.624-7.375,0.978-10.561c-2.647-3.188-7.376-3.623-10.562-0.978
			l-13.905,11.55c-1.719,1.428-2.712,3.548-2.708,5.782c0.004,2.235,1.004,4.352,2.728,5.773l13.944,11.501
			c1.397,1.152,3.087,1.714,4.768,1.714c2.162,0,4.307-0.93,5.791-2.727C313.991,459.746,313.537,455.019,310.342,452.383z"/>
	</g>
</g>
<g>
	<g>
		<path d="M338.587,417.144c-3.895-1.413-8.195,0.604-9.605,4.499l-16.226,44.819c-1.41,3.895,0.604,8.194,4.499,9.605
			c0.843,0.306,1.705,0.45,2.553,0.45c3.068,0,5.948-1.898,7.053-4.949l16.226-44.819
			C344.495,422.854,342.481,418.554,338.587,417.144z"/>
	</g>
</g>
<g>
</g>
<g>
</g>
<g>
</g>
<g>
</g>
<g>
</g>
<g>
</g>
<g>
</g>
<g>
</g>
<g>
</g>
<g>
</g>
<g>
</g>
<g>
</g>
<g>
</g>
<g>
</g>
<g>
</g>
</svg>
